<svg xmlns="http://www.w3.org/2000/svg" width="274" height="349" viewBox="0 0 274 349" version="1.1"><path d="M 132 16.141 C 110.576 18.227, 92.335 24.998, 74.603 37.447 C 65.008 44.182, 52.097 56.778, 45.334 66 C 26.436 91.770, 19.590 125.424, 26.112 160.491 C 27.891 170.057, 29.665 174.593, 37.560 189.767 C 46.938 207.791, 62.786 231.642, 100.506 284.500 C 116.242 306.551, 120.139 312.082, 129.882 326.188 C 133.840 331.919, 137.334 334, 143 334 C 149.264 334, 152.110 331.898, 158.566 322.506 C 161.830 317.759, 165.883 311.990, 167.574 309.687 C 181.843 290.255, 217.970 238.555, 234.449 213.987 C 242.199 202.433, 256.185 175.852, 257.898 169.421 C 260.559 159.434, 261.964 147.517, 261.982 134.799 C 262.003 118.942, 260.529 109.653, 255.744 95.500 C 243.575 59.501, 210.450 29.028, 172.673 19.080 C 166.260 17.391, 162.329 16.874, 146 15.574 C 143.525 15.377, 137.225 15.632, 132 16.141 M 95.345 90.058 C 93.023 91.208, 90.045 93.845, 88.595 96.036 C 78.251 111.666, 99.486 130.171, 113.572 117.802 C 118.244 113.701, 120 110.074, 120 104.528 C 120 98.545, 116.254 92.786, 110.576 90.037 C 105.231 87.449, 100.603 87.456, 95.345 90.058 M 175.676 89.910 C 162.779 96.486, 162.715 113.508, 175.563 119.924 C 183.945 124.110, 194.007 120.748, 198.042 112.413 C 201.543 105.180, 200.711 99.187, 195.434 93.639 C 190.045 87.972, 182.332 86.517, 175.676 89.910 M 82.924 161.273 C 78.417 164.310, 76.507 167.869, 77.400 171.569 C 78.317 175.373, 93.702 190.375, 101.291 194.865 C 115.206 203.100, 131.682 206.292, 152.422 204.773 C 171.221 203.396, 187.673 195.481, 201.453 181.183 C 210.043 172.270, 210.844 168.967, 205.750 163.451 C 203.609 161.132, 201.272 159.736, 198.900 159.359 C 195.575 158.831, 194.743 159.275, 188.059 165.143 C 171.113 180.021, 161.589 184, 142.920 184 C 134.003 184, 130.044 183.526, 124.528 181.798 C 118.119 179.789, 104.985 172.403, 103.473 169.957 C 101.780 167.217, 90.623 159, 88.596 159 C 87.331 159, 84.778 160.023, 82.924 161.273" stroke="none" fill="#fb8c14" fill-rule="evenodd"/></svg>